<svg xmlns="http://www.w3.org/2000/svg" width="900" height="600" viewBox="0 0 900 600" role="img" aria-labelledby="title desc"><title id="title">Fra opgave til godkendelse</title><desc id="desc">Du sætter målet. Grok Bot laver research og udfører arbejdet. Du kontrollerer og godkender.</desc><rect width="900" height="600" fill="#F5F3EE"/><style>text{font-family:Arial,Helvetica,sans-serif;fill:#16283F}.heading{font-family:Georgia,serif;font-size:40px}.small{font-size:23px;fill:#57554F}.label{font-size:29px;font-weight:600}.number{font-size:24px;fill:#004FA6;font-weight:700}</style><text x="48" y="64" class="heading">Fra opgave til godkendelse</text><text x="48" y="103" class="small">Aftal opgaven og de steder, hvor agenten skal stoppe.</text><path d="M85 202 v18" stroke="#004FA6" stroke-width="3"/><path d="m79 214 6 6 6-6" fill="none" stroke="#004FA6" stroke-width="3"/><rect x="48" y="137" width="804" height="65" rx="15" fill="white" stroke="#E7E5E3"/><circle cx="85" cy="169" r="22" fill="#E8F1FE"/><text x="85" y="177" text-anchor="middle" class="number">1</text><text x="126" y="180" class="label">Mål</text><rect x="675" y="149" width="150" height="41" rx="20" fill="#FBF1DC"/><text x="750" y="178" text-anchor="middle" font-size="24">Dig</text><path d="M85 286 v18" stroke="#004FA6" stroke-width="3"/><path d="m79 298 6 6 6-6" fill="none" stroke="#004FA6" stroke-width="3"/><rect x="48" y="221" width="804" height="65" rx="15" fill="white" stroke="#E7E5E3"/><circle cx="85" cy="253" r="22" fill="#E8F1FE"/><text x="85" y="261" text-anchor="middle" class="number">2</text><text x="126" y="264" class="label">Research</text><rect x="675" y="233" width="150" height="41" rx="20" fill="#E8F1FE"/><text x="750" y="262" text-anchor="middle" font-size="24">Grok Bot</text><path d="M85 370 v18" stroke="#004FA6" stroke-width="3"/><path d="m79 382 6 6 6-6" fill="none" stroke="#004FA6" stroke-width="3"/><rect x="48" y="305" width="804" height="65" rx="15" fill="white" stroke="#E7E5E3"/><circle cx="85" cy="337" r="22" fill="#E8F1FE"/><text x="85" y="345" text-anchor="middle" class="number">3</text><text x="126" y="348" class="label">Udførelse</text><rect x="675" y="317" width="150" height="41" rx="20" fill="#E8F1FE"/><text x="750" y="346" text-anchor="middle" font-size="24">Grok Bot</text><path d="M85 454 v18" stroke="#004FA6" stroke-width="3"/><path d="m79 466 6 6 6-6" fill="none" stroke="#004FA6" stroke-width="3"/><rect x="48" y="389" width="804" height="65" rx="15" fill="white" stroke="#E7E5E3"/><circle cx="85" cy="421" r="22" fill="#E8F1FE"/><text x="85" y="429" text-anchor="middle" class="number">4</text><text x="126" y="432" class="label">Kontrol</text><rect x="675" y="401" width="150" height="41" rx="20" fill="#FBF1DC"/><text x="750" y="430" text-anchor="middle" font-size="24">Dig</text><rect x="48" y="473" width="804" height="65" rx="15" fill="white" stroke="#E7E5E3"/><circle cx="85" cy="505" r="22" fill="#E8F1FE"/><text x="85" y="513" text-anchor="middle" class="number">5</text><text x="126" y="516" class="label">Godkendelse</text><rect x="675" y="485" width="150" height="41" rx="20" fill="#FBF1DC"/><text x="750" y="514" text-anchor="middle" font-size="24">Dig</text></svg>