<svg xmlns="http://www.w3.org/2000/svg" width="900" height="600" viewBox="0 0 900 600" role="img" aria-labelledby="title desc"><title id="title">Fra idé til Kursusoversigten.dk</title><desc id="desc">Seks trin: marked, kursusdata, database, indhold, website og publicering. Mennesket beholder retning og godkendelse.</desc><rect width="900" height="600" fill="#F5F3EE"/><style>text{font-family:Arial,Helvetica,sans-serif;fill:#16283F}.heading{font-family:Georgia,serif;font-size:40px}.small{font-size:23px;fill:#57554F}.label{font-size:29px;font-weight:600}.number{font-size:24px;fill:#004FA6;font-weight:700}</style><text x="48" y="64" class="heading">Fra idé til Kursusoversigten.dk</text><text x="48" y="103" class="small">Et konkret projekt med seks sammenhængende trin.</text><rect x="48" y="142" width="390" height="106" rx="15" fill="white" stroke="#E7E5E3"/><text x="68" y="180" class="number">01</text><text x="119" y="181" class="label">Marked</text><text x="68" y="222" class="small">Research af AI-kurser</text><rect x="462" y="142" width="390" height="106" rx="15" fill="white" stroke="#E7E5E3"/><text x="482" y="180" class="number">02</text><text x="533" y="181" class="label">Kursusdata</text><text x="482" y="222" class="small">Oplysninger fra kilder</text><rect x="48" y="264" width="390" height="106" rx="15" fill="white" stroke="#E7E5E3"/><text x="68" y="302" class="number">03</text><text x="119" y="303" class="label">Database</text><text x="68" y="344" class="small">Katalog i Supabase</text><rect x="462" y="264" width="390" height="106" rx="15" fill="white" stroke="#E7E5E3"/><text x="482" y="302" class="number">04</text><text x="533" y="303" class="label">Indhold</text><text x="482" y="344" class="small">Tekster og artikler</text><rect x="48" y="386" width="390" height="106" rx="15" fill="white" stroke="#E7E5E3"/><text x="68" y="424" class="number">05</text><text x="119" y="425" class="label">Website</text><text x="68" y="466" class="small">Sider bygget i Astro</text><rect x="462" y="386" width="390" height="106" rx="15" fill="white" stroke="#E7E5E3"/><text x="482" y="424" class="number">06</text><text x="533" y="425" class="label">Publicering</text><text x="482" y="466" class="small">GitHub og Vercel</text><rect x="48" y="520" width="804" height="48" rx="12" fill="#FBF1DC"/><text x="450" y="552" text-anchor="middle" font-size="25">Jeg beholdt retning, kontrol og godkendelse.</text></svg>